<?xml version="1.0" standalone="no"?>
<!DOCTYPE svg PUBLIC "-//W3C//DTD SVG 20010904//EN"
 "http://www.w3.org/TR/2001/REC-SVG-20010904/DTD/svg10.dtd">
<svg version="1.0" xmlns="http://www.w3.org/2000/svg"
 width="192.000000pt" height="192.000000pt" viewBox="0 0 192.000000 192.000000"
 preserveAspectRatio="xMidYMid meet">
<metadata>
Created by potrace 1.14, written by Peter Selinger 2001-2017
</metadata>
<g transform="translate(0.000000,192.000000) scale(0.100000,-0.100000)"
fill="#000000" stroke="none">
<path d="M848 1877 c-35 -19 -81 -44 -103 -56 -22 -13 -157 -89 -300 -169
-273 -153 -326 -193 -344 -259 -14 -49 -14 -199 -1 -224 6 -10 23 -25 38 -33
63 -32 122 13 122 93 0 72 39 142 105 185 29 20 56 36 59 36 3 0 55 29 117 65
61 36 113 65 115 65 1 0 42 23 91 51 125 73 170 91 223 88 57 -3 64 -6 255
-115 88 -50 206 -116 262 -147 56 -32 113 -71 126 -87 47 -56 51 -83 50 -420
0 -299 -1 -317 -20 -355 -12 -22 -32 -50 -45 -61 -24 -22 -355 -212 -508 -292
-117 -61 -158 -58 -296 20 -54 31 -117 66 -139 78 -197 110 -292 167 -322 194
-119 103 -86 302 61 367 46 20 98 24 167 14 l46 -7 26 56 c53 116 178 202 308
213 55 5 82 1 141 -17 62 -21 81 -33 137 -89 74 -74 107 -144 115 -241 6 -71
13 -88 45 -104 36 -18 72 -11 100 21 21 24 23 33 18 102 -12 167 -114 333
-257 418 -88 53 -165 72 -280 69 -123 -3 -131 -5 -227 -50 -69 -33 -185 -131
-209 -178 -6 -11 -26 -20 -54 -23 -134 -15 -230 -66 -298 -157 -122 -161 -103
-387 43 -515 33 -30 196 -129 360 -219 11 -6 87 -49 170 -95 145 -82 151 -84
215 -84 69 0 74 2 393 184 20 11 54 30 75 42 20 12 98 55 172 97 155 87 185
111 212 169 17 39 18 71 18 459 -1 460 0 454 -67 515 -28 25 -635 373 -716
410 -65 29 -125 25 -199 -14z"/>
</g>
</svg>
