<?xml version="1.0" encoding="utf-8"?>
<!-- Generator: Adobe Illustrator 25.2.0, SVG Export Plug-In . SVG Version: 6.00 Build 0)  -->
<svg version="1.1" id="Layer_1" xmlns="http://www.w3.org/2000/svg" xmlns:xlink="http://www.w3.org/1999/xlink" x="0px" y="0px"
	 viewBox="0 0 225 46" style="enable-background:new 0 0 225 46;" xml:space="preserve">
<style type="text/css">
	.st0{fill:#111B35;}
	.st1{fill:#0083FF;}
</style>
<path class="st0" d="M60.96,17.38c0,0.38-0.3,0.68-0.68,0.68h-0.64c-2.15,0-3.86,0.51-5.14,1.54c-1.28,1.03-1.92,2.39-1.92,4.1
	c0,1.7,0.64,3.06,1.92,4.08c1.28,1.03,2.99,1.54,5.13,1.54h0.64c0.38,0,0.68,0.3,0.68,0.68v1.53c0,0.38-0.3,0.68-0.68,0.68h-0.85
	c-3.05,0-5.49-0.78-7.31-2.34c-1.82-1.56-2.73-3.64-2.73-6.23c0-1.39,0.32-2.69,0.98-3.9c0.65-1.21,1.57-2.22,2.77-3.05
	c0.84-0.56,1.72-0.96,2.66-1.2c0.94-0.24,2.15-0.37,3.62-0.37h0.85c0.38,0,0.68,0.3,0.68,0.68V17.38z"/>
<path class="st0" d="M63.23,31.53V7.98c0-0.39,0.31-0.7,0.7-0.7h1.67c0.39,0,0.7,0.31,0.7,0.7v23.54c0,0.39-0.31,0.7-0.7,0.7h-1.67
	C63.55,32.22,63.23,31.91,63.23,31.53z"/>
<path class="st0" d="M68.58,23.66c0-1.18,0.22-2.31,0.66-3.38c0.44-1.07,1.08-2.03,1.92-2.89c0.82-0.84,1.75-1.47,2.78-1.91
	c1.03-0.44,2.12-0.65,3.28-0.65c1.16,0,2.26,0.22,3.31,0.65c1.04,0.44,1.97,1.07,2.79,1.91c0.82,0.84,1.45,1.79,1.89,2.87
	c0.44,1.08,0.65,2.21,0.65,3.4c0,1.21-0.22,2.35-0.65,3.44c-0.44,1.09-1.07,2.05-1.89,2.88c-0.81,0.84-1.74,1.47-2.79,1.91
	c-1.04,0.44-2.15,0.65-3.31,0.65c-1.16,0-2.26-0.22-3.28-0.65c-1.03-0.44-1.95-1.07-2.78-1.91c-0.84-0.85-1.47-1.81-1.92-2.89
	C68.8,26.01,68.58,24.86,68.58,23.66z M71.77,23.62c0,1.66,0.53,3.07,1.59,4.22s2.35,1.73,3.86,1.73s2.8-0.58,3.86-1.73
	c1.06-1.16,1.59-2.56,1.59-4.22c0-1.65-0.53-3.05-1.58-4.2c-1.06-1.15-2.34-1.72-3.87-1.72c-1.51,0-2.8,0.57-3.86,1.72
	S71.77,21.97,71.77,23.62z"/>
<path class="st0" d="M101.54,15.14c0.47,0,0.86,0.38,0.86,0.86v8.46c0,2.49-0.66,4.45-1.98,5.9c-1.32,1.45-3.09,2.18-5.3,2.18
	c-2.21,0-3.97-0.73-5.28-2.18c-1.31-1.45-1.97-3.42-1.97-5.9V16c0-0.47,0.38-0.86,0.86-0.86h1.33c0.47,0,0.86,0.38,0.86,0.86v9.02
	c0,1.35,0.4,2.44,1.19,3.29c0.79,0.85,1.81,1.27,3.04,1.27c1.24,0,2.26-0.42,3.04-1.27c0.78-0.85,1.18-1.94,1.18-3.29V16
	c0-0.47,0.38-0.86,0.86-0.86H101.54z"/>
<path class="st0" d="M121.01,7.28c0.38,0,0.69,0.31,0.69,0.69v14.34c0,1.53-0.07,2.68-0.22,3.45c-0.15,0.77-0.39,1.47-0.72,2.11
	c-0.72,1.46-1.76,2.61-3.12,3.43c-1.36,0.82-2.86,1.24-4.51,1.24c-2.49,0-4.54-0.84-6.16-2.52c-1.62-1.68-2.43-3.8-2.43-6.37
	c0-1.15,0.2-2.25,0.59-3.29c0.4-1.04,0.97-1.98,1.72-2.8c0.92-1.03,2.06-1.78,3.42-2.26c0.92-0.32,1.9-0.46,2.87-0.44
	c0.78,0.01,1.52,0.11,2.23,0.29c0.77,0.19,1.51,0.48,2.2,0.88v3.29c-0.71-0.53-1.41-0.93-2.12-1.18c-0.7-0.26-1.43-0.38-2.17-0.38
	c-1.64,0-2.98,0.56-4.04,1.69c-1.06,1.13-1.58,2.57-1.58,4.34c0,1.73,0.51,3.14,1.54,4.24c1.03,1.1,2.34,1.65,3.94,1.65
	c1.61,0,2.93-0.55,3.94-1.66c1.01-1.11,1.52-2.56,1.52-4.34V7.98c0-0.38,0.31-0.69,0.69-0.69H121.01z"/>
<path class="st0" d="M124.33,10.28c0-0.51,0.18-0.95,0.54-1.31s0.8-0.54,1.32-0.54c0.52,0,0.96,0.18,1.31,0.53
	c0.35,0.35,0.53,0.79,0.53,1.31c0,0.53-0.18,0.98-0.53,1.35c-0.35,0.37-0.79,0.55-1.31,0.55c-0.51,0-0.95-0.19-1.31-0.56
	C124.52,11.25,124.33,10.8,124.33,10.28z M124.66,31.38v-15.4c0-0.47,0.38-0.84,0.84-0.84h1.38c0.47,0,0.84,0.38,0.84,0.84v15.4
	c0,0.47-0.38,0.84-0.84,0.84h-1.38C125.04,32.22,124.66,31.85,124.66,31.38z"/>
<path class="st0" d="M144.53,15.14c0.43,0,0.78,0.35,0.78,0.78v8.53c0,2.49-0.66,4.45-1.98,5.9c-1.32,1.45-3.09,2.18-5.3,2.18
	c-2.21,0-3.97-0.73-5.28-2.18c-1.31-1.45-1.97-3.42-1.97-5.9v-8.53c0-0.43,0.35-0.78,0.78-0.78h1.48c0.43,0,0.78,0.35,0.78,0.78
	v9.09c0,1.35,0.4,2.44,1.19,3.29c0.79,0.85,1.81,1.27,3.04,1.27c1.24,0,2.26-0.42,3.04-1.27c0.78-0.85,1.18-1.94,1.18-3.29v-9.09
	c0-0.43,0.35-0.78,0.78-0.78H144.53z"/>
<path class="st0" d="M149.08,32.22c-0.51,0-0.92-0.41-0.92-0.92v-8.96c0-2.32,0.61-4.16,1.83-5.5c1.22-1.35,2.86-2.02,4.93-2.02
	c1.06,0,2.03,0.22,2.93,0.67c0.61,0.31,1.17,0.71,1.67,1.21c0.36,0.36,0.94,0.36,1.3,0c0.51-0.51,1.07-0.92,1.68-1.22
	c0.88-0.44,1.85-0.66,2.91-0.66c2.04,0,3.68,0.68,4.9,2.03s1.84,3.18,1.84,5.49v8.96c0,0.51-0.41,0.92-0.92,0.92h-1.2
	c-0.51,0-0.92-0.41-0.92-0.92v-9.53c0-1.2-0.34-2.16-1.03-2.89c-0.69-0.73-1.58-1.1-2.68-1.1s-2,0.37-2.68,1.1
	c-0.68,0.73-1.03,1.7-1.03,2.89v9.53c0,0.51-0.41,0.92-0.92,0.92h-1.2c-0.51,0-0.92-0.41-0.92-0.92v-9.53c0-1.2-0.35-2.16-1.04-2.89
	c-0.7-0.73-1.6-1.1-2.7-1.1c-1.11,0-2.01,0.37-2.69,1.1c-0.68,0.73-1.02,1.7-1.02,2.89v9.53c0,0.51-0.41,0.92-0.92,0.92H149.08z"/>
<path class="st0" d="M175.76,7.28h1.45c0.45,0,0.82,0.37,0.82,0.82v15.56c0,1.79,0.51,3.24,1.52,4.34c1.01,1.11,2.32,1.66,3.94,1.66
	c1.64,0,2.97-0.55,3.99-1.66c1.02-1.11,1.53-2.57,1.53-4.38c0-1.73-0.53-3.14-1.58-4.23c-1.05-1.09-2.4-1.64-4.05-1.64
	c-0.74,0-1.48,0.13-2.19,0.38c-0.72,0.26-1.43,0.65-2.12,1.18v-3.29c0.7-0.39,1.43-0.69,2.2-0.88c0.77-0.19,1.58-0.29,2.43-0.29
	c0.81,0,1.62,0.12,2.42,0.37c0.8,0.25,1.53,0.6,2.18,1.05c1.24,0.86,2.19,1.92,2.85,3.19c0.66,1.27,0.98,2.66,0.98,4.18
	c0,2.58-0.81,4.7-2.43,6.37c-1.62,1.67-3.67,2.51-6.14,2.51c-1.65,0-3.16-0.42-4.53-1.25c-1.37-0.83-2.41-1.97-3.13-3.42
	c-0.34-0.64-0.58-1.34-0.72-2.11c-0.14-0.77-0.22-1.92-0.22-3.45V8.1C174.95,7.65,175.31,7.28,175.76,7.28z"/>
<path class="st0" d="M193.35,23.66c0-1.18,0.22-2.31,0.66-3.38c0.44-1.07,1.08-2.03,1.92-2.89c0.82-0.84,1.75-1.47,2.78-1.91
	c1.03-0.44,2.12-0.65,3.28-0.65c1.16,0,2.26,0.22,3.31,0.65c1.04,0.44,1.97,1.07,2.79,1.91c0.82,0.84,1.45,1.79,1.89,2.87
	c0.44,1.08,0.65,2.21,0.65,3.4c0,1.21-0.22,2.35-0.65,3.44c-0.44,1.09-1.07,2.05-1.89,2.88c-0.81,0.84-1.74,1.47-2.79,1.91
	c-1.04,0.44-2.15,0.65-3.31,0.65c-1.16,0-2.26-0.22-3.28-0.65c-1.03-0.44-1.95-1.07-2.78-1.91c-0.84-0.85-1.47-1.81-1.92-2.89
	C193.57,26.01,193.35,24.86,193.35,23.66z M196.54,23.62c0,1.66,0.53,3.07,1.59,4.22c1.06,1.16,2.35,1.73,3.86,1.73
	c1.51,0,2.8-0.58,3.86-1.73c1.06-1.16,1.59-2.56,1.59-4.22c0-1.65-0.53-3.05-1.58-4.2c-1.06-1.15-2.35-1.72-3.87-1.72
	c-1.51,0-2.8,0.57-3.86,1.72C197.07,20.57,196.54,21.97,196.54,23.62z"/>
<path class="st0" d="M211.06,31.41l10.9-16.07c0.09-0.14,0.24-0.22,0.41-0.22h2.12c0.4,0,0.63,0.44,0.41,0.77l-10.9,16.07
	c-0.09,0.14-0.24,0.22-0.41,0.22h-2.12C211.07,32.18,210.84,31.74,211.06,31.41z"/>
<path class="st0" d="M224.91,31.41l-10.9-16.07c-0.09-0.14-0.24-0.22-0.41-0.22h-2.12c-0.4,0-0.63,0.44-0.41,0.77l10.9,16.07
	c0.09,0.14,0.24,0.22,0.41,0.22h2.12C224.9,32.18,225.14,31.74,224.91,31.41z"/>
<path class="st1" d="M37.67,9.9L22.52,1.16c-1.52-0.87-3.38-0.87-4.9,0L2.47,9.9c-1.52,0.87-2.45,2.49-2.45,4.24v2.93
	c0,1.06,0.86,1.93,1.93,1.93s1.93-0.86,1.93-1.93v-0.7c0-1.75,0.93-3.37,2.45-4.24l11.3-6.52c1.52-0.87,3.38-0.87,4.9,0l11.3,6.52
	c1.52,0.87,2.45,2.49,2.45,4.24v13.04c0,1.75-0.93,3.37-2.45,4.24l-11.3,6.52c-1.52,0.87-3.38,0.87-4.9,0l-3.07-1.77l-7.25-4.18
	l-0.99-0.65c-1.52-0.87-2.44-2.41-2.44-4.16v-1.16c0.36-2.07,1.95-3.82,4-4.34c0.44-0.11,0.89-0.17,1.34-0.17
	c0.38,0,0.76,0.04,1.14,0.12l1.52,0.33l0.62-1.43c1.37-3.13,4.6-5.16,8-5.07h0c4.52,0.13,8.19,4.06,8.19,8.74v0.31h0
	c0,0,0,0.01,0,0.01c0,1.05,0.85,1.9,1.9,1.9c1.05,0,1.9-0.85,1.9-1.9c0,0,0-0.01,0-0.01h0v-0.31c0-6.73-5.33-12.36-11.89-12.55
	c-4.47-0.14-8.69,2.25-10.93,6.05c-0.92-0.05-1.84,0.05-2.75,0.28c-1.12,0.28-2.15,0.79-3.06,1.44c-2.15,1.55-3.62,4-3.85,6.7
	c0,0.05,0,0.1-0.01,0.15c-0.03,0.42-0.03,0.84,0,1.26c0.13,2.06,0.92,3.99,2.32,5.55c0.53,0.59,1.12,1.01,1.77,1.43l0.88,0.58
	l12.63,7.29c1.52,0.87,3.38,0.87,4.9,0l15.15-8.75c1.52-0.87,2.45-2.49,2.45-4.24V14.14C40.12,12.39,39.18,10.78,37.67,9.9z"/>
</svg>
